<?xml version="1.0" encoding="utf-8"?>
<!-- Generated by IcoMoon.io -->
<!DOCTYPE svg PUBLIC "-//W3C//DTD SVG 1.1//EN" "http://www.w3.org/Graphics/SVG/1.1/DTD/svg11.dtd">
<svg version="1.1" xmlns="http://www.w3.org/2000/svg" xmlns:xlink="http://www.w3.org/1999/xlink" width="960" height="960" viewBox="0 0 960 960">
<g id="icomoon-ignore">
</g>
<path d="M120 200h720q16.563 0 28.282 11.719t11.719 28.282-11.719 28.282-28.282 11.719h-720q-16.563 0-28.282-11.719t-11.719-28.282 11.719-28.282 28.282-11.719zM120 680h720q16.563 0 28.282 11.719t11.719 28.282-11.719 28.282-28.282 11.719h-720q-16.563 0-28.282-11.719t-11.719-28.282 11.719-28.282 28.282-11.719zM120 440h720q16.563 0 28.282 11.719t11.719 28.282-11.719 28.282-28.282 11.719h-720q-16.563 0-28.282-11.719t-11.719-28.282 11.719-28.282 28.282-11.719z"></path>
</svg>
