<?xml version="1.0" encoding="utf-8"?>
<!-- Generated by IcoMoon.io -->
<!DOCTYPE svg PUBLIC "-//W3C//DTD SVG 1.1//EN" "http://www.w3.org/Graphics/SVG/1.1/DTD/svg11.dtd">
<svg version="1.1" xmlns="http://www.w3.org/2000/svg" xmlns:xlink="http://www.w3.org/1999/xlink" width="30" height="30" viewBox="0 0 30 30">
<path d="M15.013 0.469c-4.497 0-14.544 7.778-14.544 9.32 0 0.837 0.883 2.049 2.039 2.049 0.357 0 0.042-0.309 0.042-0.573 0-0.771 9.521-9.453 14.186-9.453 1.177 0 1.871 1.19 1.871 2.401 0 2.291-1.324 5.398-1.324 5.398-4.645 1.321-16.814 11.809-16.814 17.098 0 0.705 0.252 2.82 4.288 2.82 4.056 0 16.057-16.349 16.057-23.069 0-2.798-2.607-5.993-5.801-5.993zM2.613 27.725c-0.483 0-1.135 0-1.135-0.992 0-0.969 6.599-12.251 15.112-15.335 0 0-10.108 16.327-13.976 16.327z"></path>
<path d="M20.745 11.001c0 2.512-3.048 6.302-3.048 7.91 0 1.123 0.526 2.908 1.786 2.908 0.589 0 0.883-0.419 1.156-0.705 0.568-0.595 8.89-6.918 8.89-10.355s-3.488-4.87-4.435-4.87c-0.966 0-0.841 0.661-0.189 0.661 0.379 0 0.441-0.11 0.441-0.11s1.996 0.617 1.996 2.974c0 3.261-6.453 10.73-7.566 10.73s3.32-5.134 3.32-7.183c0-2.049-2.354-2.489-2.354-1.961z"></path>
</svg>
