<?xml version="1.0" encoding="utf-8"?>
<!-- Generated by IcoMoon.io -->
<!DOCTYPE svg PUBLIC "-//W3C//DTD SVG 1.1//EN" "http://www.w3.org/Graphics/SVG/1.1/DTD/svg11.dtd">
<svg version="1.1" xmlns="http://www.w3.org/2000/svg" xmlns:xlink="http://www.w3.org/1999/xlink" width="1024" height="1024" viewBox="0 0 1024 1024">
<g id="icomoon-ignore">
</g>
<path d="M486.791 1019.716c-80.444-3.024-151.933-18.54-203.845-44.244-20.82-10.309-36.295-20.939-48.757-33.49-12.545-12.636-19.718-25.106-22.861-39.736-1.224-5.704-10.917-55.743-15.532-80.193-1.010-5.35-2.35-12.407-2.981-15.681s-1.79-9.439-2.579-13.696c-0.789-4.257-1.869-9.974-2.398-12.704s-1.861-9.787-2.96-15.681c-1.097-5.895-2.639-14.112-3.424-18.262-1.664-8.797-1.702-12.947-0.156-17.009 1.899-4.988 6.238-8.5 11.621-9.409 5.17-0.872 9.631 0.627 15.975 5.367 17.762 13.272 46.682 29.017 75.826 41.283 60.354 25.401 127.867 39.955 199.848 43.082 11.961 0.519 42.901 0.519 54.861 0 70.97-3.084 136.737-17.060 197.054-41.875 29.76-12.245 59.837-28.466 78.452-42.315 2.311-1.718 5.169-3.565 6.352-4.103 8.008-3.641 16.999-0.95 20.645 6.18 2.304 4.508 2.507 9.198 0.788 18.233-0.642 3.368-2.077 11.036-3.192 17.041s-2.544 13.598-3.178 16.872c-0.634 3.276-1.801 9.439-2.593 13.696-2.142 11.502-4.062 21.692-5.348 28.385-0.629 3.276-2.134 11.136-3.343 17.468-5.858 30.683-11.896 61.537-12.739 65.107-3.287 13.911-10.373 25.803-22.829 38.315-30.989 31.128-90.2 55.828-164.157 68.481-43.223 7.395-93.114 10.597-138.551 8.888zM487.188 731.517c-88.495-2.288-175.092-19.648-240.578-48.225-53.89-23.516-90.575-52.851-99.433-79.508-0.634-1.907-1.948-8.073-2.936-13.774-0.985-5.677-3.065-17.736-4.623-26.797s-3.26-18.887-3.779-21.835c-0.521-2.947-1.574-9.021-2.341-13.498-1.602-9.361-2.199-12.832-6.589-38.31-1.767-10.262-3.643-21.16-4.165-24.217-30.283-177.023-44.667-264.731-49.874-304.097-1.18-8.916-1.174-15.972 0.017-21.609 5.385-25.484 30.64-49.91 73.282-70.882 30.576-15.038 65.194-26.896 109.372-37.462 12.224-2.923 14.662-3.462 27.393-6.052 115.238-23.435 257.671-27.826 385.084-11.87 47.877 5.996 93.236 14.967 131.802 26.065 72.474 20.86 121.947 48.384 142.238 79.134 3.29 4.986 4.864 8.043 6.773 13.152 3.471 9.296 4.032 15.761 2.466 28.488-2.525 20.531-9.163 62.773-21.87 139.192-5.332 32.068-6.881 41.286-13.907 82.773-3.989 23.558-12.609 74.022-16.613 97.264-0.545 3.166-2.62 15.224-4.608 26.797s-4.143 24.078-4.785 27.79c-0.643 3.711-1.783 10.322-2.534 14.689-1.402 8.142-2.11 12.25-5.212 30.172-0.983 5.677-2.233 12.901-2.777 16.054-1.14 6.593-2.279 10.258-4.764 15.345-3.648 7.463-9.020 14.582-17.226 22.826-36.676 36.836-110.328 68.764-196.722 85.276-54.331 10.384-111.482 14.717-173.089 13.123zM527.483 632.902c23.062-2.739 43.36-10.146 62.13-22.668 8.161-5.445 13.469-9.831 21.088-17.422 12.065-12.024 20.96-24.52 27.89-39.188 13.166-27.866 16.78-59.837 10.144-89.751-11.597-52.278-51.395-93.135-103.169-105.913-12.493-3.084-22.848-4.165-36.913-3.857-10.549 0.232-17.423 1.023-26.872 3.092-47.665 10.441-86.896 45.715-102.404 92.079-2.938 8.782-4.835 16.925-6.155 26.4-1.016 7.303-1.223 24.136-0.395 32.355 2.676 26.614 13.282 52.448 30.235 73.642 4.492 5.615 15.399 16.521 21.003 21.001 8.203 6.557 19.875 13.882 28.299 17.762 17.039 7.846 32.145 11.662 52.29 13.209 3.871 0.297 17.938-0.159 22.827-0.738zM505.159 563.593c-25.411-2.658-47.276-18.497-57.45-41.618-7.017-15.946-7.797-34.278-2.163-50.836 9.045-26.578 33.644-45.489 61.412-47.211 12.782-0.792 24.628 1.464 35.533 6.77 20.11 9.782 33.943 27.956 38.464 50.537 1.105 5.521 0.983 20.729-0.213 26.202-5.607 25.681-23.37 45.481-47.693 53.164-8.488 2.681-19.542 3.868-27.89 2.995zM557.456 194.387c87.129-3.020 161.65-14.211 202.662-30.434 18.024-7.128 28.209-14.149 32.426-22.349 1-1.945 1.123-2.595 1.123-5.955 0-3.436-0.116-4.014-1.299-6.512-2.523-5.329-10.084-11.657-19.923-16.68-32.299-16.483-95.445-28.836-176.68-34.561-44.732-3.152-100.782-3.595-150.659-1.189-86.233 4.159-161.4 17.895-194.692 35.58-9.29 4.934-16.194 10.841-18.724 16.020-1.239 2.536-1.358 3.090-1.358 6.352s0.119 3.816 1.358 6.352c1.752 3.584 6.744 8.631 11.942 12.069 16.704 11.051 48.972 21.085 91.309 28.395 45.284 7.818 101.937 12.648 158.202 13.487 12.966 0.194 52.344-0.157 64.313-0.572z"></path>
</svg>
